<svg height="512pt" viewBox="-31 0 512 512" width="512pt" xmlns="http://www.w3.org/2000/svg"><path d="m0 376v136h450v-136c0-57.898438-47.101562-105-105-105h-46.597656c19.484375-19.074219 31.597656-45.644531 31.597656-75v-47.554688c28.0625-9.847656 39.496094-44.609374 21.09375-69.320312-2.058594-2.859375 7.050781 9.792969-18.09375-25.125-25.359375-33.8125-65.734375-54-108-54s-82.640625 20.1875-108 54l-18.09375 25.125c-18.414062 24.726562-6.953125 59.480469 21.09375 69.320312v47.554688c0 29.355469 12.113281 55.925781 31.597656 75h-46.597656c-57.898438 0-105 47.101562-105 105zm240 60v-135h45.867188l-54.042969 181h-13.648438l-54.042969-181h45.867188v135zm116.535156-77.746094-44.785156 44.785156 15.976562 31.949219-30.828124 47.011719h-33.765626l54.042969-181h8.824219zm-169.667968 123.746094h-33.765626l-30.828124-47.011719 15.976562-31.949219-44.785156-44.785156 30.535156-57.253906h8.824219zm-156.867188-106c0-35.894531 25.351562-65.964844 59.085938-73.285156l-32.550782 61.03125 45.214844 45.214844-14.023438 28.050781 29.5 44.988281h-87.226562zm390 0v106h-87.226562l29.503906-44.988281-14.023438-28.050781 45.214844-45.214844-32.554688-61.03125c33.734376 7.320312 59.085938 37.390625 59.085938 73.285156zm-297-279 18.085938-25.113281c19.726562-26.230469 51.085937-41.886719 83.914062-41.886719 32.824219 0 64.1875 15.65625 83.914062 41.886719l17.914063 24.878906.171875.234375c7.402344 9.871094.421875 24-12 24h-180c-12.339844 0-19.453125-14.0625-12-24zm174.429688 54c-6.191407 17.460938-22.871094 30-42.429688 30h-60c-19.554688 0-36.238281-12.539062-42.429688-30zm-147.429688 45v-.039062c12.542969 9.4375 28.128906 15.039062 45 15.039062h60c16.871094 0 32.457031-5.601562 45-15.039062v.039062c0 41.355469-33.644531 75-75 75s-75-33.644531-75-75zm0 0"/><path d="m203.785156 76 21.210938-21.210938 21.214844 21.210938-21.214844 21.214844zm0 0"/></svg>