<?xml version="1.0" encoding="utf-8"?>
<!-- Generator: Adobe Illustrator 22.1.0, SVG Export Plug-In . SVG Version: 6.00 Build 0)  -->
<svg version="1.1" id="Capa_1" xmlns="http://www.w3.org/2000/svg" xmlns:xlink="http://www.w3.org/1999/xlink" x="0px" y="0px"
	 viewBox="0 0 512 512" style="enable-background:new 0 0 512 512;" xml:space="preserve">
<style type="text/css">
	.st0{fill:none;stroke:#000000;stroke-width:17;stroke-miterlimit:10;}
</style>
<path class="st0" d="M316,84.2h28.6c0,15.4-5.8,29.3-10.1,39.2c-0.5,1.2-1.1,2.5-1.6,3.8h96.1C421.7,63.2,367.8,12,301.7,12
	s-120,51.2-127.2,115.3h41.4C249.5,127.3,316,101.1,316,84.2z"/>
<path class="st0" d="M301.7,364.5l37-37h-73.9L301.7,364.5z"/>
<path class="st0" d="M127.7,359.6L267.2,500h40.4L147.9,339.4C139.9,344.7,133,351.6,127.7,359.6z"/>
<path class="st0" d="M416.1,327.5h-37l-77.4,77.4l-77.4-77.4h-37c-3.4,0-6.6,0.5-9.8,1L348.1,500h139.5V399
	C487.6,359.5,455.6,327.5,416.1,327.5z"/>
<path class="st0" d="M115.8,399v101h110.9L116.8,389.1C116.4,392.4,115.8,395.6,115.8,399z"/>
<path class="st0" d="M154,305l-68-68l-60.7,60.7l68,68C103.5,337.4,125.7,315.1,154,305z"/>
<path class="st0" d="M301.7,298.9c72.2,0,128.7-59.2,128.7-128.7v-14.3H330.3c-4.5,0-18.1,0-24.9-10.4c-2.7-4.1-3.6-8.3-3.4-12.6
	c-30.1,15-68.2,22.9-86,22.9H173v14.3C173,241.2,230.7,298.9,301.7,298.9z M271.4,200.5c16.2,16.2,44.4,16.2,60.6,0l20.2,20.2
	c-13.5,13.5-31.5,21-50.5,21s-37-7.4-50.5-21L271.4,200.5z"/>
</svg>
