<svg id="Layer_1" xmlns="http://www.w3.org/2000/svg" viewBox="0 0 107.5 40"><style>.st0{fill:#FFFFFF;}</style><g id="XMLID_5_"><path id="XMLID_6_" class="st0" d="M95.6 8.4H68c-3.5 0-6.3 2.9-6.3 6.4 0 3.5 2.8 6.3 6.3 6.4h8.8c1.1 0 2.2.7 2.4 1.9.3 1.5-.8 2.9-2.3 2.9H67c-1.3 0-2.5-.5-3.3-1.4l-9.3-9.3 6.9-6.9h-5.7l-3.9 3.9V.7h-4v15.5l-7.9 7.9c-1.3 1.2-2.9 1.8-4.6 1.8-.8 0-1.7-.2-2.4-.5l12-12-1.9-1.9c-2.1-2.1-5.1-3.3-8.3-3.1-5.3.3-9.6 4.5-10 9.8-.2 2.9.7 5.6 2.3 7.6l-4 4.1V19.3c0-5.6-4.1-10.4-9.7-10.9h-2.1-.1c-5.5.6-9.7 5.4-9.7 10.9v10.6h4V19.3c0-1.7.6-3.4 1.7-4.7 1.3-1.5 3.1-2.3 5-2.3s3.7.8 5 2.3c1.1 1.3 1.7 3 1.7 4.7v20.2l11-11c1.6.9 3.4 1.5 5.4 1.5 2.9 0 5.5-1.1 7.4-3l.1-.1.2-.2 4.7-4.7v8h4V18.3l10.6 10.6c.7.7 1.7 1.1 2.7 1.1h11.8c2.7 0 5.3-1.7 6.1-4.4 1.4-4.4-1.8-8.4-6-8.4H68c-1.3 0-2.4-1.1-2.4-2.4 0-1.3 1.1-2.4 2.4-2.4h27.6v.1c2.2.1 4.3 1.2 5.5 3.1.4.7.8 1.4.9 2.2.6 2.8-.6 5.5-3 7.1-.7.4-1.4.8-2.2.9-2.3.5-4.6-.2-6.2-1.8-1.3-1.3-2-3-2-4.8 0-.8.1-1.5.4-2.2h-4.2c-.3 1.3-.3 2.7-.1 4.2.8 4.7 4.8 8.4 9.6 8.8 6.4.6 11.8-4.5 11.8-10.7.1-6.1-4.6-10.8-10.5-10.9zM29.7 22.9c-.7-1.1-1.2-2.4-1.2-3.8 0-1.7.7-3.4 1.9-4.7 1.3-1.4 3-2.1 4.9-2.1 1.4 0 2.7.4 3.8 1.2l-9.4 9.4z"/></g></svg>